<svg width="12" height="12" viewBox="0 0 12 12" fill="none" xmlns="http://www.w3.org/2000/svg">
<path d="M3.2999 4.40001V3.94287C3.2999 2.42341 4.50419 1.20001 5.9999 1.20001C7.49562 1.20001 8.6999 2.42341 8.6999 3.94287V4.40001M3.2999 4.40001C2.8049 4.40001 2.3999 4.81144 2.3999 5.3143V9.88572C2.3999 10.3886 2.8049 10.8 3.2999 10.8H8.6999C9.1949 10.8 9.5999 10.3886 9.5999 9.88572V5.3143C9.5999 4.81144 9.1949 4.40001 8.6999 4.40001M3.2999 4.40001H8.6999M5.9999 6.68573C6.4949 6.68573 6.8999 7.09715 6.8999 7.60001C6.8999 8.10287 6.4949 8.5143 5.9999 8.5143C5.5049 8.5143 5.0999 8.10287 5.0999 7.60001C5.0999 7.09715 5.5049 6.68573 5.9999 6.68573Z" stroke="white"/>
</svg>
