<svg width="20" height="20" viewBox="0 0 20 20" fill="none" xmlns="http://www.w3.org/2000/svg">
<g clip-path="url(#clip0_449_205)">
<path fill-rule="evenodd" clip-rule="evenodd" d="M4.64823 6.22999C4.64823 3.97273 6.4781 2.14286 8.73536 2.14286C10.9926 2.14286 12.8225 3.97273 12.8225 6.22999C12.8225 6.55133 12.7856 6.8627 12.7163 7.16063C12.5822 7.73697 12.9408 8.31289 13.5171 8.44694C14.0935 8.58101 14.6694 8.22247 14.8034 7.64613C14.9095 7.19016 14.9654 6.71591 14.9654 6.22999C14.9654 2.78926 12.1761 0 8.73536 0C5.29463 0 2.50537 2.78926 2.50537 6.22999C2.50537 6.71591 2.56121 7.19016 2.66727 7.64613C2.80134 8.22247 3.37724 8.58101 3.95359 8.44694C4.52994 8.31289 4.88847 7.73697 4.75441 7.16063C4.68511 6.8627 4.64823 6.55133 4.64823 6.22999ZM6.97636 13.8515V6.08484C6.97636 5.09121 7.78186 4.28571 8.77549 4.28571C9.76911 4.28571 10.5746 5.09121 10.5746 6.08483V11.909H14.0942C16.1242 11.909 17.77 13.5547 17.77 15.5847V18.5714C17.77 19.3604 17.1304 20 16.3414 20H6.9022C6.43199 20 5.99187 19.7686 5.72531 19.3813L4.6339 17.795C3.62963 16.3354 4.45834 14.3254 6.19944 13.9978L6.97636 13.8515Z" fill="white"/>
</g>
<defs>
<clipPath id="clip0_449_205">
<rect width="20" height="20" fill="white"/>
</clipPath>
</defs>
</svg>
